<svg width="25" height="24" viewBox="0 0 25 24" fill="none" xmlns="http://www.w3.org/2000/svg">
<g clip-path="url(#clip0_19_230)">
<path fill-rule="evenodd" clip-rule="evenodd" d="M2.89364 0.0878906H19.5211C21.0516 0.0878906 22.2923 1.27899 22.2923 2.74829V2.88058L11.2074 8.20138L0.122391 2.8806V2.74829C0.122391 1.27899 1.36312 0.0878906 2.89364 0.0878906ZM0.122391 5.27638V13.3899C0.122391 14.8592 1.36312 16.0503 2.89364 16.0503H11.6918C12.1507 15.5499 12.8018 15.1762 13.6452 15.0354C14.5656 14.8816 15.2986 14.2109 15.5032 13.3367L15.5402 13.1744C16.3106 9.79581 21.3218 9.77477 22.123 13.1468L22.1393 13.2159C22.1505 13.2633 22.1591 13.3 22.168 13.336C22.1959 13.45 22.2327 13.5605 22.2775 13.6668C22.2873 13.5758 22.2923 13.4834 22.2923 13.3899V5.27637L11.7065 10.3576C11.3923 10.5084 11.0224 10.5084 10.7082 10.3576L0.122391 5.27638ZM17.4368 13.573C17.7637 12.1393 19.8902 12.1303 20.2302 13.5613L20.2461 13.6289C20.2568 13.675 20.2671 13.7176 20.278 13.762C20.6696 15.3633 22.0195 16.5869 23.7093 16.8691C25.267 17.1292 25.267 19.2759 23.7093 19.5362C22.0105 19.8199 20.6552 21.0549 20.2718 22.6689L20.2302 22.8439C19.8902 24.2748 17.7637 24.2659 17.4368 22.8322L17.4025 22.6819C17.0332 21.0621 15.6797 19.8178 13.978 19.5336C12.4232 19.2739 12.4232 17.1313 13.978 16.8716C15.6738 16.5884 17.0237 15.3517 17.3986 13.7401L17.4239 13.6296L17.4368 13.573Z" fill="#B3B6CD"/>
</g>
<defs>
<clipPath id="clip0_19_230">
<rect width="25" height="24" fill="white"/>
</clipPath>
</defs>
</svg>
